<svg preserveAspectRatio="none" width="100%" height="100%" overflow="visible" style="display: block;" viewBox="0 0 73 12" fill="none" xmlns="http://www.w3.org/2000/svg">
<g id="Group 1707480068">
<path id="Vector" d="M17.4862 12L18.5425 7.56316L15 4.57895L19.68 4.18421L21.5 0L23.32 4.18421L28 4.57895L24.4575 7.56316L25.5137 12L21.5 9.64737L17.4862 12Z" fill="var(--fill-0, #FFBF5B)"/>
<path id="Vector_2" d="M47.4862 12L48.5425 7.56316L45 4.57895L49.68 4.18421L51.5 0L53.32 4.18421L58 4.57895L54.4575 7.56316L55.5137 12L51.5 9.64737L47.4862 12Z" fill="var(--fill-0, #FFBF5B)"/>
<path id="Vector_3" d="M2.48625 12L3.5425 7.56316L0 4.57895L4.68 4.18421L6.5 0L8.32 4.18421L13 4.57895L9.4575 7.56316L10.5137 12L6.5 9.64737L2.48625 12Z" fill="var(--fill-0, #FFBF5B)"/>
<path id="Vector_4" d="M62.4862 12L63.5425 7.56316L60 4.57895L64.68 4.18421L66.5 0L68.32 4.18421L73 4.57895L69.4575 7.56316L70.5137 12L66.5 9.64737L62.4862 12Z" fill="var(--fill-0, #FFBF5B)"/>
<path id="Vector_5" d="M32.4862 12L33.5425 7.56316L30 4.57895L34.68 4.18421L36.5 0L38.32 4.18421L43 4.57895L39.4575 7.56316L40.5137 12L36.5 9.64737L32.4862 12Z" fill="var(--fill-0, #FFBF5B)"/>
</g>
</svg>
