<svg preserveAspectRatio="none" width="100%" height="100%" overflow="visible" style="display: block;" viewBox="0 0 63 10" fill="none" xmlns="http://www.w3.org/2000/svg">
<g id="Group 1707480068">
<path id="Vector" d="M15.1037 10L15.9975 6.30263L13 3.81579L16.96 3.48684L18.5 0L20.04 3.48684L24 3.81579L21.0025 6.30263L21.8962 10L18.5 8.03947L15.1037 10Z" fill="var(--fill-0, #FFBF5B)"/>
<path id="Vector_2" d="M41.1037 10L41.9975 6.30263L39 3.81579L42.96 3.48684L44.5 0L46.04 3.48684L50 3.81579L47.0025 6.30263L47.8962 10L44.5 8.03947L41.1037 10Z" fill="var(--fill-0, #FFBF5B)"/>
<path id="Vector_3" d="M2.10375 10L2.9975 6.30263L0 3.81579L3.96 3.48684L5.5 0L7.04 3.48684L11 3.81579L8.0025 6.30263L8.89625 10L5.5 8.03947L2.10375 10Z" fill="var(--fill-0, #FFBF5B)"/>
<path id="Vector_4" d="M54.1037 10L54.9975 6.30263L52 3.81579L55.96 3.48684L57.5 0L59.04 3.48684L63 3.81579L60.0025 6.30263L60.8962 10L57.5 8.03947L54.1037 10Z" fill="var(--fill-0, #FFBF5B)"/>
<path id="Vector_5" d="M28.1037 10L28.9975 6.30263L26 3.81579L29.96 3.48684L31.5 0L33.04 3.48684L37 3.81579L34.0025 6.30263L34.8962 10L31.5 8.03947L28.1037 10Z" fill="var(--fill-0, #FFBF5B)"/>
</g>
</svg>
